<?xml version="1.0" standalone="no"?><!DOCTYPE svg PUBLIC "-//W3C//DTD SVG 1.1//EN" "http://www.w3.org/Graphics/SVG/1.1/DTD/svg11.dtd"><svg t="1573447555025" class="icon" viewBox="0 0 1024 1024" version="1.1" xmlns="http://www.w3.org/2000/svg" p-id="700" xmlns:xlink="http://www.w3.org/1999/xlink" width="200" height="200"><defs><style type="text/css"></style></defs><path d="M727.466667 1024H128a128 128 0 0 1-128-128V128a128 128 0 0 1 128-128h601.6A128 128 0 0 1 853.333333 128v64a42.666667 42.666667 0 0 1-85.333333 0V128a42.666667 42.666667 0 0 0-40.533333-42.666667H128a42.666667 42.666667 0 0 0-42.666667 42.666667v768a42.666667 42.666667 0 0 0 42.666667 42.666667h601.6a42.666667 42.666667 0 0 0 38.4-42.666667v-192a42.666667 42.666667 0 0 1 85.333333 0V896a128 128 0 0 1-125.866666 128zM981.333333 554.666667H341.333333a42.666667 42.666667 0 0 1 0-85.333334h537.173334l-55.893334-55.466666a42.666667 42.666667 0 0 1 60.586667-60.586667l128 128a42.666667 42.666667 0 0 1 8.96 46.506667A42.666667 42.666667 0 0 1 981.333333 554.666667z" p-id="701"></path></svg>