<?xml version="1.0" standalone="no"?><!DOCTYPE svg PUBLIC "-//W3C//DTD SVG 1.1//EN" "http://www.w3.org/Graphics/SVG/1.1/DTD/svg11.dtd"><svg t="1573457971044" class="icon" viewBox="0 0 1024 1024" version="1.1" xmlns="http://www.w3.org/2000/svg" p-id="1118" xmlns:xlink="http://www.w3.org/1999/xlink" width="200" height="200"><defs><style type="text/css"></style></defs><path d="M288.623002 467.311195l446.752973 0 0 89.419566L288.623002 556.730761 288.623002 467.311195zM958.70846 244.064668l0 535.9996c0 98.625228-80.000032 178.579211-178.75522 178.579211L243.954663 958.64348c-98.579179 0-178.665169-79.953983-178.665169-178.579211L65.289494 244.064668c0-98.711186 80.08599-178.709171 178.665169-178.709171l535.998577 0C878.708428 65.355497 958.70846 145.353482 958.70846 244.064668zM869.374852 288.731984c0-74.023924-60.021002-134.044926-133.998877-134.044926L288.623002 154.687058c-73.979922 0-133.912919 60.021002-133.912919 134.044926L154.710083 735.309972c0 74.109882 59.932997 134.042879 133.912919 134.042879l446.752973 0c73.977875 0 133.998877-59.932997 133.998877-134.042879L869.374852 288.731984z" p-id="1119"></path></svg>